<?xml version="1.0" encoding="UTF-8" standalone="no"?>
<svg
   xmlns:dc="http://purl.org/dc/elements/1.1/"
   xmlns:cc="http://creativecommons.org/ns#"
   xmlns:rdf="http://www.w3.org/1999/02/22-rdf-syntax-ns#"
   xmlns:svg="http://www.w3.org/2000/svg"
   xmlns="http://www.w3.org/2000/svg"
   xmlns:sodipodi="http://sodipodi.sourceforge.net/DTD/sodipodi-0.dtd"
   xmlns:inkscape="http://www.inkscape.org/namespaces/inkscape"
   width="36"
   height="36"
   viewBox="0 0 28.8 28.8"
   version="1.1"
   id="svg3120"
   inkscape:version="0.48.2 r9819"
   sodipodi:docname="thedreamdrop_best_2.svg"
   inkscape:export-filename="/Users/clint/Development/thedreamdrop/app/apple-touch-icon-76x76-precomposed.png"
   inkscape:export-xdpi="195.4133"
   inkscape:export-ydpi="195.4133">
  <metadata
     id="metadata3134">
    <rdf:RDF>
      <cc:Work
         rdf:about="">
        <dc:format>image/svg+xml</dc:format>
        <dc:type
           rdf:resource="http://purl.org/dc/dcmitype/StillImage" />
        <dc:title></dc:title>
      </cc:Work>
    </rdf:RDF>
  </metadata>
  <defs
     id="defs3132" />
  <sodipodi:namedview
     pagecolor="#ffffff"
     bordercolor="#666666"
     borderopacity="1"
     objecttolerance="10"
     gridtolerance="10"
     guidetolerance="10"
     inkscape:pageopacity="0"
     inkscape:pageshadow="2"
     inkscape:window-width="1300"
     inkscape:window-height="738"
     id="namedview3130"
     showgrid="false"
     inkscape:zoom="8"
     inkscape:cx="-1.742485"
     inkscape:cy="20.212112"
     inkscape:window-x="435"
     inkscape:window-y="134"
     inkscape:window-maximized="0"
     inkscape:current-layer="svg3120" />
  <path
     style="fill:#212121"
     d="M 12.40625 0.46875 C 8.4406252 0.471875 4.45625 0.5875 0.5 0.5 L 0.5 7.46875 C 1.25 7.61875 2.75 7.89375 3.5 8.03125 C 3.6625 14.66875 3.6625 21.34375 3.5 27.96875 C 2.7375 28.10625 1.25 28.3625 0.5 28.5 L 0.5 35.5 C 8.6375 35.3125 16.84375 36.0625 24.90625 34.75 C 28.85625 34.2 32.05 31.21875 33.8125 27.78125 C 35.9 23.29375 35.60625 18.125 35.21875 13.3125 C 34.84375 7.4625005 30.275 1.7375 24.25 1.125 C 20.31875 0.5625 16.371875 0.465625 12.40625 0.46875 z M 16.9375 6.6875 C 18.4875 12.25 24.09375 16.79375 22.90625 22.96875 C 21.31875 28.76875 11.7 28.38125 10.75 22.34375 C 10.325 16.41875 15.55 12.1875 16.9375 6.6875 z "
     id="path3124"
     transform="scale(0.8,0.8)" />
  <path
     d="m 11.198905,18.756274 c -2.4999995,-2.97 0.22,-6.63 2.23,-8.9999996 -0.54,1.7299996 -1.36,3.3874996 -1.8675,5.1249996 -0.18,1.275 -0.2425,2.575 -0.3625,3.875 z"
     id="path3128"
     inkscape:connector-curvature="0"
     style="fill:#212121"
     sodipodi:nodetypes="cccc" />
</svg>
