<?xml version="1.0" encoding="UTF-8" standalone="no"?>
<svg
   xmlns:dc="http://purl.org/dc/elements/1.1/"
   xmlns:cc="http://creativecommons.org/ns#"
   xmlns:rdf="http://www.w3.org/1999/02/22-rdf-syntax-ns#"
   xmlns:svg="http://www.w3.org/2000/svg"
   xmlns="http://www.w3.org/2000/svg"
   xmlns:sodipodi="http://sodipodi.sourceforge.net/DTD/sodipodi-0.dtd"
   xmlns:inkscape="http://www.inkscape.org/namespaces/inkscape"
   width="36"
   height="36"
   viewBox="0 0 28.8 28.8"
   version="1.1"
   id="svg3120"
   inkscape:version="0.48.2 r9819"
   sodipodi:docname="thedreamdrop_best_1.svg"
   inkscape:export-filename="/Users/clint/Downloads/thedreamdrop_best_11.png"
   inkscape:export-xdpi="90"
   inkscape:export-ydpi="90">
  <metadata
     id="metadata3134">
    <rdf:RDF>
      <cc:Work
         rdf:about="">
        <dc:format>image/svg+xml</dc:format>
        <dc:type
           rdf:resource="http://purl.org/dc/dcmitype/StillImage" />
        <dc:title></dc:title>
      </cc:Work>
    </rdf:RDF>
  </metadata>
  <defs
     id="defs3132" />
  <sodipodi:namedview
     pagecolor="#ffffff"
     bordercolor="#666666"
     borderopacity="1"
     objecttolerance="10"
     gridtolerance="10"
     guidetolerance="10"
     inkscape:pageopacity="0"
     inkscape:pageshadow="2"
     inkscape:window-width="1680"
     inkscape:window-height="954"
     id="namedview3130"
     showgrid="false"
     inkscape:zoom="8"
     inkscape:cx="-1.742485"
     inkscape:cy="20.212112"
     inkscape:window-x="0"
     inkscape:window-y="0"
     inkscape:window-maximized="1"
     inkscape:current-layer="svg3120" />
  <path
     d="m 0.39890548,0.39627438 c 6.33000002,0.14 12.70999952,-0.39 18.99999952,0.51 4.82,0.49000002 8.48,5.06000002 8.78,9.73999962 0.31,3.85 0.55,8 -1.12,11.59 -1.41,2.75 -3.98,5.12 -7.14,5.56 -6.45,1.05 -13.0099995,0.45 -19.51999952,0.6 0,-1.87 0,-3.73 0,-5.6 0.6,-0.11 1.80000002,-0.32 2.41000002,-0.43 0.13,-5.3 0.13,-10.62 0,-15.9299996 -0.6,-0.11 -1.81000002,-0.33 -2.41000002,-0.45 0,-1.86 0,-3.72 0,-5.59000002 z"
     id="path3124"
     inkscape:connector-curvature="0"
     style="fill:#212121" />
  <path
     d="m 8.5889055,17.886274 c -0.34,-4.74 3.8599995,-8.1299996 4.9699995,-12.5299996 1.24,4.45 5.72,8.0699996 4.77,13.0099996 -1.27,4.64 -8.9799995,4.35 -9.7399995,-0.48 z"
     id="path3126"
     inkscape:connector-curvature="0"
     style="fill:#ffffff" />
  <path
     d="m 11.198905,18.756274 c -2.4999995,-2.97 0.22,-6.63 2.23,-8.9999996 -0.54,1.7299996 -1.36,3.3874996 -1.8675,5.1249996 -0.18,1.275 -0.2425,2.575 -0.3625,3.875 z"
     id="path3128"
     inkscape:connector-curvature="0"
     style="fill:#212121"
     sodipodi:nodetypes="cccc" />
</svg>
